<svg width="57" height="45" viewBox="0 0 57 45" fill="none" xmlns="http://www.w3.org/2000/svg">
<g clip-path="url(#clip0_0_597)">
<path d="M0 4.08865V14.3345C0 17.4551 3.86077 19.1194 6.22013 16.935L17.4807 6.68913C19.9473 4.45272 18.3387 0.5 14.9605 0.5H3.69991C1.66228 0.5 0 2.11229 0 4.08865Z" fill="#5986EF"/>
<path d="M53.3001 0.5H42.0395C38.715 0.5 37.0527 4.45272 39.5193 6.68913L50.7799 16.935C53.1392 19.0674 57 17.4551 57 14.3345V4.08865C57 2.11229 55.3377 0.5 53.3001 0.5Z" fill="#5986EF"/>
<path d="M31.047 25.5165L50.7799 43.5118C53.1392 45.6442 57 44.0319 57 40.9113V30.5615C57 29.5733 56.571 28.6371 55.8203 27.961L31.047 5.33687C29.5992 4.03664 27.4008 4.03664 25.953 5.33687L1.17968 27.961C0.428975 28.6371 0 29.5733 0 30.5615V40.9113C0 44.0319 3.86077 45.6962 6.22013 43.5118L25.953 25.5165C27.4008 24.2163 29.5992 24.2163 31.047 25.5165Z" fill="#5986EF"/>
</g>
<defs>
<clipPath id="clip0_0_597">
<rect width="57" height="44" fill="white" transform="translate(0 0.5)"/>
</clipPath>
</defs>
</svg>
